SplineFontDB: 3.0
FontName: PatentCure
FullName: Patent Cure
FamilyName: Patent Cure
Weight: Heavy
Copyright: Created by Justin Sheckler with FontForge 2.0 (http://fontforge.sf.net)
UComments: "2013-3-23: Created." 
Version: 001.000
ItalicAngle: 0
UnderlinePosition: -100
UnderlineWidth: 50
Ascent: 760
Descent: 240
LayerCount: 2
Layer: 0 0 "Back"  1
Layer: 1 0 "Fore"  0
XUID: [1021 691 -1653312711 7448654]
FSType: 0
OS2Version: 0
OS2_WeightWidthSlopeOnly: 0
OS2_UseTypoMetrics: 1
CreationTime: 1364069233
ModificationTime: 1364956768
PfmFamily: 17
TTFWeight: 800
TTFWidth: 5
LineGap: 90
VLineGap: 90
OS2TypoAscent: 0
OS2TypoAOffset: 1
OS2TypoDescent: 0
OS2TypoDOffset: 1
OS2TypoLinegap: 90
OS2WinAscent: 0
OS2WinAOffset: 1
OS2WinDescent: 0
OS2WinDOffset: 1
HheadAscent: 0
HheadAOffset: 1
HheadDescent: 0
HheadDOffset: 1
OS2Vendor: 'PfEd'
Lookup: 4 0 1 "StdLig"  {"StdLig-1"  } ['liga' ('DFLT' <'dflt' > 'latn' <'dflt' > ) ]
Lookup: 258 0 0 "Kern"  {"kern-1" [150,15,0] } ['kern' ('DFLT' <'dflt' > 'latn' <'dflt' > ) ]
MarkAttachClasses: 1
DEI: 91125
LangName: 1033 
Encoding: UnicodeBmp
UnicodeInterp: none
NameList: AGL For New Fonts
DisplaySize: -48
AntiAlias: 1
FitToEm: 1
WidthSeparation: 50
WinInfo: 27 9 9
BeginPrivate: 0
EndPrivate
TeXData: 1 0 0 52428 26214 17476 0 1048576 17476 783286 444596 497025 792723 393216 433062 380633 303038 157286 324010 404750 52429 2506097 1059062 262144
BeginChars: 65536 253

StartChar: J
Encoding: 74 74 0
Width: 701
VWidth: 0
Flags: W
HStem: 0 240<20.9873 140.987 165 200.987> 0 151.755<202.786 379.723> 570 150<260.987 380.987 560.987 680.987>
VStem: 20.9873 120<0 90> 380.987 180.987<152.729 570>
LayerCount: 2
Fore
SplineSet
260.987304688 720.002929688 m 5x78
 260.987304688 720 l 5
 681.974609375 720.002929688 l 5
 680.987304688 570 l 5
 560.987304688 570 l 5
 561.974609375 120.002929688 l 6
 561.974609375 28.9453125 531.5390625 0.00390625 441.974609375 0.0029296875 c 6
 230.987304688 0 l 6x78
 171.20703125 0 140.987304688 30.2197265625 140.987304688 90 c 6
 140.987304688 0 l 5
 20.9873046875 0 l 5
 20 239.997070312 l 5
 200.987304688 240 l 5xb8
 200.987304688 210 l 6
 200.987304688 150 200.987304688 150 260.219726562 151.754882812 c 5
 319.78125 151.754882812 l 6
 380.236328125 151.754882812 380.987304688 148.797851562 380.987304688 210 c 6
 380.987304688 570 l 5
 260.987304688 570 l 5
 260.987304688 720.002929688 l 5x78
EndSplineSet
Validated: 37
EndChar

StartChar: K
Encoding: 75 75 1
Width: 830
VWidth: 0
Flags: W
HStem: 0 150<25 145 350.173 444.875 656.216 805> 570 150<25.0361 145 325 384.893 475 505 702.595 805>
VStem: 145 180<353.011 570>
LayerCount: 2
Fore
SplineSet
25 720 m 1
 384.892578125 720.177734375 l 1
 384.982421875 570 l 1
 325 570 l 1
 325 353.010742188 l 1
 505 567.526367188 l 1
 475 570 l 1
 475 720.142578125 l 1
 805.22265625 720.142578125 l 1
 805 570 l 1
 702.594726562 570 l 1
 532.586914062 367.391601562 l 1
 532.586914062 367.391601562 602.327148438 150.133789062 714.794921875 150.133789062 c 2
 805 150 l 1
 805 0 l 1
 687.802734375 0 l 2
 504.857421875 0 439.654296875 256.639648438 439.654296875 256.639648438 c 1
 350.172851562 150 l 1
 445 150 l 1
 444.875 0 l 1
 25 0 l 1
 25 150 l 1
 145 150 l 1
 145 570 l 1
 25.0361328125 570 l 1
 25 720 l 1
EndSplineSet
Validated: 1
EndChar

StartChar: S
Encoding: 83 83 2
Width: 648
VWidth: 0
Flags: W
HStem: 0 240.009<24.1074 143.965 167.886 204.124> 0 150<205.693 442.43> 270 179.822<205.583 442.428> 479.911 240<443.911 480.025 503.946 624> 569.858 150.23<204.866 442.244>
VStem: 24.1074 180.017<151.606 240.009 450.77 569.251> 443.911 180.089<151.865 268.135 480 568.315> 503.946 120.143<629.938 719.911>
LayerCount: 2
Fore
SplineSet
144.053710938 720.088867188 m 2x6e
 413.973632812 719.911132812 l 2
 473.955078125 719.911132812 503.946289062 689.919921875 503.946289062 629.938476562 c 2
 503.946289062 719.911132812 l 1x35
 624.088867188 720.088867188 l 1x2d
 624 480 l 1
 443.911132812 479.911132812 l 1x36
 443.911132812 509.90234375 l 2
 443.911132812 569.884765625 443.911132812 569.884765625 383.928710938 569.884765625 c 2
 263.928710938 569.858398438 l 2
 203.911132812 569.911132812 203.43359375 573.967773438 204 510 c 0
 204.56640625 446.032226562 204 450 264.0703125 449.822265625 c 2
 504 450 l 2
 593.973632812 450 624 419.973632812 624 330 c 2
 624 120 l 2
 624 30.0263671875 593.831054688 0 503.857421875 0 c 2
 233.9375 0 l 2
 173.955078125 0 143.96484375 29.9912109375 143.96484375 89.9736328125 c 2
 144 0 l 1
 24 0 l 1x6e
 24.107421875 240.149414062 l 1
 204.124023438 240.008789062 l 1xa6
 204.124023438 210.017578125 l 2
 204.124023438 150.036132812 204.124023438 150.036132812 264.106445312 150.036132812 c 2
 264.106445312 150.036132812 324 150 384 150 c 0
 444 150 444 151.58984375 444 210 c 0
 444 268.41015625 444 270 383.9296875 270 c 2
 144 270 l 2
 54.02734375 270 24 300.026367188 24 390 c 2
 24.0888671875 599.946289062 l 2
 24.0888671875 688.421875 54.080078125 720.088867188 144.053710938 720.088867188 c 2x6e
EndSplineSet
Validated: 37
EndChar

StartChar: W
Encoding: 87 87 3
Width: 1128
VWidth: 0
Flags: W
HStem: 0 21G<249.271 451.279 676.721 878.382> 564.18 155.82<24 143.493 321.476 414 714 806.524 984.16 1104>
LayerCount: 2
Fore
SplineSet
24 564.1796875 m 1
 24 720 l 1
 414 720 l 1
 414 564.1796875 l 1
 321.475585938 564.1796875 l 1
 377.959960938 243.837890625 l 1
 540.923828125 717.1171875 l 1
 585.973632812 720.3203125 l 1
 750.040039062 243.837890625 l 1
 806.524414062 564.1796875 l 1
 714 564.1796875 l 1
 714 720 l 1
 1104 720 l 1
 1104 564.1796875 l 1
 984.16015625 564.1796875 l 1
 874.494140625 0 l 1
 684 0 l 1
 564 329.697265625 l 1
 444 0 l 1
 253.158203125 0 l 1
 143.493164062 564.1796875 l 1
 24 564.1796875 l 1
EndSplineSet
Validated: 1
EndChar

StartChar: A
Encoding: 65 65 4
Width: 887
VWidth: 0
Flags: W
HStem: 0 150<23 137.596 311.738 413 473 574.262 748.404 863> 240 150<389.719 496.281> 570 150<173 290.463>
LayerCount: 2
Fore
SplineSet
173 720 m 1
 540.94140625 720 l 1
 748.404296875 150 l 1
 863 150 l 1
 863 0 l 1
 473 0 l 1
 473 150 l 1
 574.26171875 150 l 1
 545.01953125 240 l 1
 340.98046875 240 l 1
 311.73828125 150 l 1
 413 150 l 1
 413 0 l 1
 23 0 l 1
 23 150 l 1
 137.595703125 150 l 1
 290.462890625 570 l 1
 173 570 l 1
 173 720 l 1
443 553.983398438 m 1
 389.71875 390 l 1
 496.28125 390 l 1
 443 553.983398438 l 1
EndSplineSet
Validated: 1
EndChar

StartChar: B
Encoding: 66 66 5
Width: 702
VWidth: 0
Flags: W
HStem: 0 150<21 141 321 499.608> 270 180<321 499.376> 570 150<21 141 321 499.808>
VStem: 141 180<150 270 450 570> 500.845 180.155<151.511 267.417 452.583 568.665>
CounterMasks: 1 e0
LayerCount: 2
Fore
SplineSet
21 720 m 1
 21 720 471.438476562 720 561 720 c 0
 650.561523438 720 681 659.5703125 681 570 c 2
 681 480 l 2
 681 390 651 360 591 360 c 1
 651 360 681 330 681 240 c 2
 681 150 l 2
 681 60.2119140625 651.979492188 0 561 0 c 0
 470.020507812 0 21 0 21 0 c 1
 21 150 l 1
 141 150 l 1
 141 570 l 1
 21 570 l 1
 21 720 l 1
321 570 m 1
 321 450 l 1
 441 450 l 2
 501 450 501 450 501 510 c 0
 501.859375 570 501 570 441 570 c 2
 321 570 l 1
321 270 m 1
 321 150 l 1
 441 150 l 2
 501 150 501 150 500.844726562 207.763671875 c 0
 501 270 501 270 441 270 c 2
 321 270 l 1
EndSplineSet
Validated: 33
EndChar

StartChar: C
Encoding: 67 67 6
Width: 648
VWidth: 0
Flags: W
HStem: 0 240<444 480.072 504 624> 0 150.001<205.571 442.279> 480 240<444 480.071 504 624> 569.996 150.004<205.57 442.278>
VStem: 24 180.001<151.571 568.425> 444 180<151.566 240 480 568.363> 504 120<0 90 630 719.999>
LayerCount: 2
Fore
SplineSet
24 600.001953125 m 0x4a
 24 690.001953125 54 720 144 720 c 2
 413.999023438 720 l 2x5a
 473.999023438 720 503.999023438 690 503.999023438 630 c 2
 504 720 l 1x2a
 624.000976562 719.999023438 l 1
 624 480 l 1
 444 480 l 1x2c
 444 507.447265625 l 2
 444 570 444 570 384 570 c 2
 264 569.99609375 l 2
 204 569.994140625 204 569.99609375 204 509.99609375 c 2
 204.000976562 210 l 2
 204.000976562 150.000976562 204.000976562 150.000976562 264.000976562 150.000976562 c 2x5c
 384.000976562 150 l 2
 444.000976562 150 444.000976562 150 444 209.859375 c 2
 444 240 l 1
 624 240 l 1x8c
 624 0 l 1
 504 0 l 1x8a
 504 90 l 2
 504 30 474 0 414 0 c 2
 144 0 l 2
 54 0 24 30.0009765625 24 120.000976562 c 0
 24 210.000976562 24 509.999023438 24 600.001953125 c 0x4a
EndSplineSet
Validated: 33
EndChar

StartChar: D
Encoding: 68 68 7
Width: 734
VWidth: 0
Flags: W
HStem: 0 150.212<22.2988 141.565 322.006 530.477> 570 150<22.2988 141.56 322.299 531.157>
VStem: 141.565 180.44<150.212 569.786> 532.299 180.08<151.601 569.43>
LayerCount: 2
Fore
SplineSet
22.298828125 720 m 1
 592.298828125 720 l 2
 681.96875 720 712.000976562 689.681640625 712.298828125 600 c 2
 712.37890625 119.859375 l 2
 712.677734375 29.9658203125 682.4140625 -0.056640625 591.325195312 0 c 2
 22.298828125 0 l 1
 22.005859375 150.0703125 l 1
 141.565429688 150.0703125 l 1
 141.559570312 569.786132812 l 1
 22 569.786132812 l 1
 22.298828125 720 l 1
322.298828125 570 m 1
 322.005859375 150.211914062 l 1
 471.174804688 150.071289062 l 2
 531.103515625 150.014648438 532.298828125 150 532.298828125 210 c 2
 532.298828125 510 l 2
 532.298828125 571.2109375 533.428710938 571.28125 472.298828125 570 c 1
 322.298828125 570 l 1
EndSplineSet
Validated: 33
EndChar

StartChar: E
Encoding: 69 69 8
Width: 739
VWidth: 0
Flags: W
HStem: 0 240<534 570.072 594 714> 0 150<24 144 324 532.279> 270 180<324 474> 480 240<534 570.072 594 714> 570 150<24 144 324 532.279>
VStem: 144 180<150 270 450 570> 534 180<151.57 240 480 568.42> 594 120<0 90 630 720>
LayerCount: 2
Fore
SplineSet
24 720 m 1x6d
 504 720 l 2x6d
 564 720 594 690 594 630 c 2
 594 720 l 1
 714 720 l 1x35
 714 480 l 1
 534 480 l 1x36
 534 509.611328125 l 2
 534 570 534 570 474 570 c 2
 324 570 l 1
 324 450 l 1
 474 450 l 1
 474 270 l 1
 324 270 l 1
 324 150 l 1
 474 150 l 2x6e
 534 150 534 150 534 210 c 2
 534 240 l 1
 714 240 l 1xa6
 714 0 l 1
 594 0 l 1xa5
 594 90 l 2
 594 30 564 0 504 0 c 2
 24 0 l 1
 24 150 l 1
 144 150 l 1
 144 570 l 1
 24 570 l 1
 24 720 l 1x6d
EndSplineSet
Validated: 1
EndChar

StartChar: F
Encoding: 70 70 9
Width: 738
VWidth: 0
Flags: W
HStem: 0 150<24 144 324 444> 270 180<324 444> 509.611 210.389<534 570.072 594.374 714> 570 150<24 144 324 532.279>
VStem: 144 180<150 270 450 570> 594 120<630 720>
LayerCount: 2
Fore
SplineSet
24 720 m 1xdc
 504 720 l 2xdc
 564 720 594 690 594 630 c 2
 594.374023438 720 l 1
 714 720 l 1
 714 510 l 1
 534 509.611328125 l 1xec
 534 570 534 570 474 570 c 2
 324 570 l 1
 324 450 l 1
 444 450 l 1
 444 270 l 1
 324 270 l 1
 324 150 l 1
 444 150 l 1
 444 0 l 1
 24 0 l 1
 24 150 l 1
 144 150 l 1
 144 570 l 1
 24 570 l 1
 24 720 l 1xdc
EndSplineSet
Validated: 524289
EndChar

StartChar: G
Encoding: 71 71 10
Width: 679
VWidth: 0
Flags: W
HStem: 0 149.665<205.459 471.214> 240 120.754<354 473.921> 480 240<474 509.436 534 654> 568.837 151.163<205.234 471.215>
VStem: 24 180<151.035 567.698> 474 180<151.601 239.215 480 568.026> 534 120<630 720>
LayerCount: 2
Fore
SplineSet
24 600 m 2xda
 24 689.748046875 54.251953125 720 144 720 c 2xda
 442.91015625 719.999023438 l 2
 502.7421875 719.999023438 534 689.83203125 534 630 c 2
 534 720 l 1
 654 720 l 1xea
 654 480 l 1
 474 480 l 1xec
 474 510 l 2
 474 570 474 570 412.909179688 568.836914062 c 1
 263.328125 568.836914062 l 2
 203.49609375 568.836914062 204 569.83203125 204 510 c 2
 204 210 l 2
 204 150.16796875 203.497070312 149.532226562 263.328125 149.665039062 c 2
 414 150 l 2
 473.83203125 150 474 150.16796875 474 210 c 0xdc
 474 240 474 240 414 240 c 2
 354 240 l 1
 352.91015625 360.75390625 l 1
 654 360 l 1
 654 0 l 1
 532.657226562 0.1796875 l 1
 534 90 l 2
 534 30.16796875 502.741210938 0.1796875 442.908203125 0.1796875 c 2
 143.663085938 0 l 2
 53.9150390625 -0.0537109375 24 29.9169921875 24 119.665039062 c 2
 24 600 l 2xda
EndSplineSet
Validated: 37
EndChar

StartChar: H
Encoding: 72 72 11
Width: 860
VWidth: 0
Flags: W
HStem: 0 150<25 145 325 385 475 535 715 835> 270 180<325 535> 570 150<25 145 325 385 475 535 715 835>
VStem: 25 360<0 150 570 720> 145 180<150 270 450 570> 475 360<0 150 570 720> 535 180<150 270 450 570>
CounterMasks: 1 e0
LayerCount: 2
Fore
SplineSet
835 720 m 1xe4
 835 570 l 1xe4
 715 570 l 1
 715 150 l 1xe2
 835 150 l 1
 835 0 l 1
 475 0 l 1
 475 150 l 1xe4
 535 150 l 1
 535 270 l 1
 325 270 l 1
 325 150 l 1xea
 385 150 l 1
 385 0 l 1
 25 0 l 1
 25 150 l 1xf0
 145 150 l 1
 145 570 l 1xe8
 25 570 l 1
 25 720 l 1
 385 720 l 1
 385 570 l 1xf0
 325 570 l 1
 325 450 l 1
 535 450 l 1
 535 570 l 1xea
 475 570 l 1
 475 720 l 1
 835 720 l 1xe4
EndSplineSet
Validated: 1
EndChar

StartChar: I
Encoding: 73 73 12
Width: 469
VWidth: 0
Flags: W
HStem: 0 150<25.001 145 325 444.999> 570 150<25.001 145 325 445>
VStem: 145 180<150 570>
LayerCount: 2
Fore
SplineSet
445 720 m 1
 445 570 l 1
 325 570 l 1
 325 150 l 1
 445 150 l 1
 444.999023438 0 l 1
 25 0 l 1
 25.0009765625 150 l 1
 145 150 l 1
 145 570 l 1
 25.0009765625 570 l 1
 25.0009765625 720 l 1
 445 720 l 1
EndSplineSet
Validated: 1
EndChar

StartChar: L
Encoding: 76 76 13
Width: 766
VWidth: 0
Flags: W
HStem: 0 239.914<563.157 599.05 623 743> 0 149.429<23.5645 143.45 323.278 561.258> 570 149.821<23.3994 143.399 323.114 442.6>
VStem: 143.45 179.828<149.429 569.886> 563.082 180.375<151.529 239.543> 623 120<0 90>
LayerCount: 2
Fore
SplineSet
442.599609375 719.82421875 m 1x74
 443 570 l 1
 323.114257812 570 l 1
 323.278320312 149.428710938 l 1x74
 503 150 l 2
 562.942382812 150 562.942382812 150 563.08203125 208.444335938 c 2
 563.157226562 239.9140625 l 1
 743.45703125 239.54296875 l 1xb8
 743 0 l 1
 623 0 l 1xb4
 623 90 l 2
 623 30.056640625 592.942382812 0 533 0 c 2
 23 0 l 1
 23.564453125 149.428710938 l 1
 143.450195312 149.428710938 l 1
 143.399414062 569.885742188 l 1
 23.3994140625 570 l 1
 23 720 l 1
 442.599609375 719.821289062 l 1
 442.599609375 719.82421875 l 1x74
EndSplineSet
Validated: 1
EndChar

StartChar: M
Encoding: 77 77 14
Width: 1070
VWidth: 0
Flags: W
HStem: 0 150<25.001 145 325 384.999 685.001 745.001 924.998 1045> 570 150<25 145 924.998 1045>
VStem: 145 180<150 424.054> 745.001 179.997<150 424.054>
LayerCount: 2
Fore
SplineSet
25 720 m 1
 355 720 l 1
 535 295.946289062 l 1
 715 720 l 1
 1044.99804688 720 l 1
 1044.99804688 570 l 1
 924.998046875 570 l 1
 924.998046875 150 l 1
 1044.99804688 150 l 1
 1044.99804688 0 l 1
 684.999023438 0 l 1
 685.000976562 150 l 1
 745.000976562 150 l 1
 745 424.053710938 l 1
 565 0 l 1
 505 0 l 1
 325 424.053710938 l 1
 325 150 l 1
 385 150 l 1
 384.999023438 0 l 1
 25 0 l 1
 25.0009765625 150 l 1
 145 150 l 1
 145 570 l 1
 25 570 l 1
 25 720 l 1
EndSplineSet
Validated: 1
EndChar

StartChar: N
Encoding: 78 78 15
Width: 886
VWidth: 0
Flags: W
HStem: 0 150<23 143 323 413> 570 150<23 143 473 563 743 863>
VStem: 143 180<150 432.972> 563 180<287.028 570>
LayerCount: 2
Fore
SplineSet
23 720 m 1
 327.307617188 720 l 1
 563 287.028320312 l 1
 563 570 l 1
 473 570 l 1
 473 720 l 1
 863 720 l 1
 863 570 l 1
 743 570 l 1
 743 0 l 1
 563 0 l 1
 323 432.971679688 l 1
 323 150 l 1
 413 150 l 1
 413 0 l 1
 23 0 l 1
 23 150 l 1
 143 150 l 1
 143 570 l 1
 23 570 l 1
 23 720 l 1
EndSplineSet
Validated: 1
EndChar

StartChar: O
Encoding: 79 79 16
Width: 648
VWidth: 0
Flags: W
HStem: 0.000976562 149.999<205.57 442.43> 570 150<205.57 441.083>
VStem: 24 180<151.57 568.43> 444 180<151.57 568.43>
LayerCount: 2
Fore
SplineSet
144 720 m 6
 504 720 l 6
 593.775390625 720 623.326171875 690 624 600 c 6
 624 120 l 5
 621.302734375 29.9990234375 595.197265625 -0.0009765625 504 0 c 6
 146.697265625 0.0009765625 l 6
 54 0 24 30 24 120 c 6
 24 600 l 6
 24 690 54 720 144 720 c 6
264 570 m 6
 204 570 204 570 204 510 c 6
 204 210 l 6
 204 150 204 150 264 150 c 6
 384 150 l 6
 444 150 444 150 444 210 c 6
 442.5 509.999023438 l 6
 442.125 570.001953125 444 570 384 570 c 6
 264 570 l 6
EndSplineSet
Validated: 33
EndChar

StartChar: P
Encoding: 80 80 17
Width: 732
VWidth: 0
Flags: W
HStem: 0.353516 149.646<21.6514 141.211 321 441> 270 150<321 529.912> 569.857 150.214<21 140.56 321 529.807>
VStem: 140.56 180.44<150 270 420 569.857> 531.495 180<421.585 568.221>
LayerCount: 2
Fore
SplineSet
21 720 m 1
 21 720 501.825195312 720.071289062 591.495117188 720.071289062 c 0
 681.165039062 720.071289062 711.495117188 689.75390625 711.495117188 600.071289062 c 2
 711.495117188 390.071289062 l 2
 711.495117188 300.177734375 680.65234375 270.095703125 590.015625 270.071289062 c 2
 321 270 l 1
 321 150 l 1
 441.353515625 149.788085938 l 1
 441 0 l 1
 21 0.353515625 l 1
 21.6513671875 149.999023438 l 1
 141.2109375 149.999023438 l 1
 140.559570312 570 l 1
 21 570 l 1
 21 720 l 1
321 569.857421875 m 1
 321 420 l 1
 471 420 l 2
 531.495117188 420 531.495117188 420.071289062 531.495117188 480.071289062 c 2
 531.495117188 510.071289062 l 2
 531.495117188 570.071289062 530.928710938 569.715820312 471 569.715820312 c 2
 321 569.857421875 l 1
EndSplineSet
Validated: 33
EndChar

StartChar: Q
Encoding: 81 81 18
Width: 650
VWidth: 0
Flags: W
HStem: -240 120<386.57 565> 0 150<206.57 265 385 443.43> 570 150<206.57 443.575>
VStem: 25 180<151.57 568.43> 265 120<-118.43 0 150 210> 445 180<151.57 568.43>
CounterMasks: 1 1c
LayerCount: 2
Fore
SplineSet
145 720 m 2
 502.302734375 719.999023438 l 2
 592.079101562 719.999023438 625 689.788085938 625 600 c 2
 625 120 l 2
 625 30 595 0 505 0 c 2
 385 0 l 1
 385 -60 l 2
 385 -120 385 -120 445 -120 c 2
 565 -120 l 1
 565 -240 l 1
 385 -240 l 2
 295 -240 265 -210 265 -120 c 0
 265 0 l 1
 145 0 l 2
 55 0 25 30 25 120 c 2
 25 600 l 2
 25 690 55 720 145 720 c 2
265 570 m 2
 205 570 205 570 205 510 c 2
 205 210 l 2
 205 150 205 150 265 150 c 1
 265 210 l 1
 385 210 l 1
 385 150 l 1
 445 150 445 150 445 210 c 2
 445 510 l 2
 445.330078125 570 445 570 385 570 c 2
 265 570 l 2
EndSplineSet
Validated: 524321
EndChar

StartChar: R
Encoding: 82 82 19
Width: 764
VWidth: 0
Flags: W
HStem: 0 150<23 143 323 443 683.039 743> 270 180<323 501.43> 570 150<23 143 323 501.43>
VStem: 143 180<150 270 450 570> 503 240<31.8232 150> 503 180<150.039 269.961 451.57 568.43>
CounterMasks: 1 e0
LayerCount: 2
Fore
SplineSet
23 720 m 1xf4
 563 720 l 2
 653 720 683 720 683 630 c 2
 683 450 l 2
 683 390 653 360 593 360 c 1
 653 360 683 330 683 270 c 2
 683 180 l 2xf4
 683 150 683 150 713 150 c 2
 743 150 l 1
 743 0 l 1
 623 0 l 2
 533 0 503 30 503 120 c 2xf8
 503 240 l 2
 503 270 503 270 473 270 c 2
 323 270 l 1
 323 150 l 1
 443 150 l 1
 443 0 l 1
 23 0 l 1
 23 150 l 1
 143 150 l 1
 143 570 l 1
 23 570 l 1
 23 720 l 1xf4
323 570 m 1
 323 450 l 1
 443 450 l 2
 503 450 503 450 503 510 c 0
 503 570 503 570 443 570 c 2
 323 570 l 1
EndSplineSet
Validated: 1
EndChar

StartChar: T
Encoding: 84 84 20
Width: 830
VWidth: 0
Flags: W
HStem: 0 150<205 325 505 625> 510 210<25 145 168.928 205 625 661.072 685 805> 570 150<206.721 325 505 623.279>
VStem: 25 120<630 720> 325 180<150 570> 685 120<630 720>
CounterMasks: 1 1c
LayerCount: 2
Fore
SplineSet
805 720 m 1xdc
 805 510 l 1
 625 510 l 1xdc
 625 570 625 570 565 570 c 2
 505 570 l 1
 505 150 l 1
 625 150 l 1
 625 0 l 1
 205 0 l 1
 205 150 l 1
 325 150 l 1
 325 570 l 1
 265 570 l 2xbc
 205 570 205 570 205 511.603515625 c 1
 25 510 l 1
 25 720 l 1
 145 720 l 1xdc
 145 630 l 2
 145 690 175 720 235 720 c 2
 595 720 l 2xbc
 655 720 685 690 685 630 c 2
 685 720 l 1
 805 720 l 1xdc
EndSplineSet
Validated: 1
EndChar

StartChar: U
Encoding: 85 85 21
Width: 856
VWidth: 0
Flags: W
HStem: 0 150<324.57 531.43> 570 150<23 143 323 383 473 533 713 833>
VStem: 143 180<151.57 570> 533 180<151.57 570>
LayerCount: 2
Fore
SplineSet
23 720 m 1
 383 720 l 1
 383 570 l 1
 323 570 l 1
 323 210 l 2
 323 150 323 150 383 150 c 2
 473 150 l 2
 533 150 533 150 533 210 c 2
 533 570 l 1
 473 570 l 1
 473 720 l 1
 833 720 l 1
 833 570 l 1
 713 570 l 1
 713 120 l 2
 713 30 683 0 593 0 c 2
 263 0 l 2
 173 0 143 30 143 120 c 2
 143 570 l 1
 23 570 l 1
 23 720 l 1
EndSplineSet
Validated: 1
EndChar

StartChar: V
Encoding: 86 86 22
Width: 858
VWidth: 0
Flags: W
HStem: 0 21G<345.919 512.081> 570 150<24 123.705 318.596 384 474 539.404 734.295 834>
LayerCount: 2
Fore
SplineSet
834 720 m 1
 834 570 l 1
 734.294921875 570 l 1
 504 0 l 1
 354 0 l 1
 123.705078125 570 l 1
 24 570 l 1
 24 720 l 1
 384 720 l 1
 384 570 l 1
 318.595703125 570 l 1
 429 266.666015625 l 1
 539.404296875 570 l 1
 474 570 l 1
 474 720 l 1
 834 720 l 1
EndSplineSet
Validated: 1
EndChar

StartChar: X
Encoding: 88 88 23
Width: 830
VWidth: 0
Flags: W
HStem: 0 150<25 178.824 651.176 805> 570 150<25 178.824 651.176 805>
LayerCount: 2
Fore
SplineSet
25 720 m 1
 295 720 l 1
 415 527.959960938 l 1
 535 720 l 1
 805 720 l 1
 805 570 l 1
 651.17578125 570 l 1
 520.046875 360 l 1
 651.17578125 150 l 1
 805 150 l 1
 805 0 l 1
 535 0 l 1
 415.046875 191.96484375 l 1
 295.09375 0 l 1
 25 0 l 1
 25 150 l 1
 178.82421875 150 l 1
 310.046875 360 l 1
 178.82421875 570 l 1
 25 570 l 1
 25 720 l 1
EndSplineSet
Validated: 1
EndChar

StartChar: Y
Encoding: 89 89 24
Width: 828
VWidth: 0
Flags: W
HStem: 0 150<204 324 504 624> 570 150<24 121.555 301.555 384 444 526.445 706.445 804>
LayerCount: 2
Fore
SplineSet
24 720 m 1
 384 720 l 1
 384 570 l 1
 301.5546875 570 l 1
 414 390.049804688 l 1
 526.4453125 570 l 1
 444 570 l 1
 444 720 l 1
 804 720 l 1
 804 570 l 1
 706.4453125 570 l 1
 504 235.688476562 l 1
 504 150 l 1
 624 150 l 1
 624 0 l 1
 504 0 l 1
 324 0 l 1
 204 0 l 1
 204 150 l 1
 324 150 l 1
 324 235.688476562 l 1
 121.5546875 570 l 1
 24 570 l 1
 24 720 l 1
EndSplineSet
Validated: 1
EndChar

StartChar: Z
Encoding: 90 90 25
Width: 650
VWidth: 0
Flags: W
HStem: 0 240<445 481.072 505 625> 0 150<235 443.279> 480 240<25 145 169.294 205.001> 570 150<207.087 415>
VStem: 25 120.366<630 720> 445 180<151.57 240> 505 120<0 90>
LayerCount: 2
Fore
SplineSet
25 720 m 1x2a
 145 720 l 1x2a
 145.366210938 630 l 2
 145.366210938 690 175.366210938 720 235.366210938 720 c 2
 624.999023438 720 l 1
 625 570 l 1
 235 150 l 1
 385 150 l 2x5a
 445 150 445 150 445 210 c 2
 445 240 l 1
 625 240 l 1x8c
 625 0 l 1
 505 0 l 1x8a
 505 90 l 2
 505 30 475 0 415 0 c 2
 25 0 l 1
 25 150 l 1
 415 570 l 1
 265.000976562 570 l 2x5a
 205.000976562 570 205.000976562 570 205.000976562 510 c 2
 205.000976562 480 l 1
 25 480 l 1
 25 720 l 1x2a
EndSplineSet
Validated: 1
EndChar

StartChar: colon
Encoding: 58 58 26
Width: 230
VWidth: 0
Flags: W
HStem: 0 180<25 205> 300 180<25 205>
VStem: 25 180<0 180 300 480>
LayerCount: 2
UndoRedoHistory
Layer: 1
Undoes
EndUndoes
Redoes
EndRedoes
EndUndoRedoHistory
Fore
SplineSet
25 480 m 1
 205 480 l 1
 205 300 l 1
 25 300 l 1
 25 480 l 1
25 180 m 1
 205 180 l 1
 205 0 l 1
 25 0 l 1
 25 180 l 1
EndSplineSet
Validated: 1
EndChar

StartChar: ampersand
Encoding: 38 38 65
Width: 670
VWidth: 0
Flags: W
HStem: 0 150<201.57 348.279 531.57 650> 300 120<200 350 530 590> 460 20G<350 530> 510 210<350 386.072 410 530> 570 150<201.57 348.279>
VStem: 20 180<151.57 298.279 421.721 568.43> 350 180<151.57 300 420 480 510 568.43> 410 120<630 720>
LayerCount: 2
UndoRedoHistory
Layer: 1
Undoes
EndUndoes
Redoes
EndRedoes
EndUndoRedoHistory
Fore
SplineSet
140 720 m 2xed
 320 720 l 2xed
 380 720 410 690 410 630 c 2
 410 720 l 1
 530 720 l 1xf5
 530 510 l 1
 350 510 l 1xf6
 350 570 350 570 290 570 c 2
 260 570 l 2xee
 200 570 200 570 200 510 c 2
 200 420 l 1
 350 420 l 1
 350 480 l 1
 530 480 l 1
 530 420 l 1
 590 420 l 1
 590 300 l 1
 530 300 l 1
 530 210 l 2xf6
 530 150 530 150 590 150 c 2
 650 150 l 1
 650 0 l 1
 500 0 l 2
 440 0 410 30 410 90 c 1
 410 30 380 0 320 0 c 2
 140 0 l 2
 50 0 20 30 20 120 c 2
 20 270 l 2
 20 330 50 360 110 360 c 1
 50 360 20 390 20 450 c 2
 20 598 l 2
 20 690 50 720 140 720 c 2xed
200 300 m 1
 200 210 l 2
 200 150 200 150 260 150 c 2
 290 150 l 2
 350 150 350 150 350 210 c 2
 350 300 l 1xe6
 200 300 l 1
EndSplineSet
Validated: 1
EndChar

StartChar: parenleft
Encoding: 40 40 67
Width: 459
VWidth: 0
Flags: W
HStem: -30 150<230.823 439> 600 150<230.823 439>
VStem: 19 180<156.296 566.322>
LayerCount: 2
UndoRedoHistory
Layer: 1
Undoes
EndUndoes
Redoes
EndRedoes
EndUndoRedoHistory
Fore
SplineSet
259 750 m 2
 439 750 l 1
 439 600 l 1
 319 600 l 2
 229 600 199 570 199 480 c 2
 199 240 l 2
 199 150 229 120 319 120 c 2
 439 120 l 1
 439 -30 l 1
 259 -30 l 2
 49 -30 19 30 19 330 c 2
 19 390 l 2
 19 720 49 750 259 750 c 2
EndSplineSet
Validated: 1
EndChar

StartChar: parenright
Encoding: 41 41 68
Width: 459
VWidth: 0
Flags: W
HStem: -30 150<20 228.177> 600 150<20 228.177>
VStem: 260 180<153.678 566.322>
LayerCount: 2
UndoRedoHistory
Layer: 1
Undoes
EndUndoes
Redoes
EndRedoes
EndUndoRedoHistory
Fore
SplineSet
200 -30 m 2
 20 -30 l 1
 20 120 l 1
 140 120 l 2
 230 120 260 150 260 240 c 2
 260 480 l 2
 260 570 230 600 140 600 c 2
 20 600 l 1
 20 750 l 1
 200 750 l 2
 410 750 440 720 440 390 c 2
 440 330 l 2
 440 0 410 -30 200 -30 c 2
EndSplineSet
Validated: 1
EndChar

StartChar: slash
Encoding: 47 47 74
Width: 518
VWidth: 0
Flags: W
HStem: 0 21G<19 207.333> 700 20G<310.667 499>
LayerCount: 2
UndoRedoHistory
Layer: 1
Undoes
EndUndoes
Redoes
EndRedoes
EndUndoRedoHistory
Fore
SplineSet
19 0 m 1
 319 720 l 1
 439 720 l 1
 499 720 l 1
 473.141601562 657.940429688 l 1
 199 0 l 1
 19 0 l 1
EndSplineSet
Validated: 524289
EndChar

StartChar: zero
Encoding: 48 48 75
Width: 588
VWidth: 0
Flags: W
HStem: 0.000976562 149.999<205.57 382.43> 570 150<205.57 381.083>
VStem: 24 180<151.57 568.43> 384 180<151.57 568.43>
LayerCount: 2
UndoRedoHistory
Layer: 1
Undoes
EndUndoes
Redoes
EndRedoes
EndUndoRedoHistory
Fore
SplineSet
144 720 m 2
 444 720 l 2
 533.775390625 720 563.326171875 690 564 600 c 2
 564 120 l 1
 561.302734375 29.9990234375 535.197265625 -0.0009765625 444 0 c 2
 146.697265625 0.0009765625 l 2
 54 0 24 30 24 120 c 2
 24 600 l 2
 24 690 54 720 144 720 c 2
264 570 m 2
 204 570 204 570 204 510 c 2
 204 210 l 2
 204 150 204 150 264 150 c 2
 324 150 l 2
 384 150 384 150 384 210 c 2
 382.5 509.999023438 l 2
 382.125 570.001953125 384 570 324 570 c 2
 264 570 l 2
EndSplineSet
Validated: 524321
EndChar

StartChar: one
Encoding: 49 49 76
Width: 609
VWidth: 0
Flags: W
HStem: 0 150<169 289 469 589> 510 210<19 139 162.928 199> 600 120<200.721 289>
VStem: 19 120<630 720> 289 180<150 600>
LayerCount: 2
UndoRedoHistory
Layer: 1
Undoes
EndUndoes
Redoes
EndRedoes
EndUndoRedoHistory
Fore
SplineSet
19 720 m 1xd8
 139 720 l 1xd8
 139 630 l 2
 139 690 169 720 229 720 c 2
 469 720 l 1
 469 150 l 1
 589 150 l 1
 589 0 l 1
 169 0 l 1
 169 150 l 1
 289 150 l 1
 289 600 l 1
 259 600 l 2xb8
 199 600 199 600 199 540 c 2
 199 510 l 1
 19 510 l 1
 19 720 l 1xd8
EndSplineSet
Validated: 1
EndChar

StartChar: two
Encoding: 50 50 77
Width: 589
VWidth: 0
Flags: W
HStem: 0 240<384.001 420.073 444.001 564.001> 0 150<204.789 382.28> 480 240<24.7891 144.001 167.929 204.789> 570 150<208.073 382.431>
VStem: 24.001 120<630 720> 24.7891 180<150 216.994 480 568.471> 384.001 180<151.507 240 465.221 568.207> 444.001 120<0 90>
LayerCount: 2
UndoRedoHistory
Layer: 1
Undoes
EndUndoes
Redoes
EndRedoes
EndUndoRedoHistory
Fore
SplineSet
24.7890625 0 m 1x45
 24.7890625 0 24.0009765625 130 24.0009765625 180 c 0
 23.212890625 390 384.7890625 390 384.000976562 509.439453125 c 0
 384.000976562 568.87890625 384.000976562 570 324.000976562 570 c 2
 264.7890625 570 l 2x5a
 204.7890625 570 204.7890625 570 204.7890625 511.561523438 c 2
 204.7890625 480 l 1
 24.7890625 480 l 1x26
 24.0009765625 720 l 1x18
 144.000976562 720 l 1x28
 144.000976562 630 l 2
 144.000976562 690 174.000976562 720 234.000976562 720 c 2
 443.212890625 720 l 2
 534.000976562 720 564.000976562 690 564.000976562 600 c 2x19
 564.000976562 480 l 2
 564.000976562 360 204.000976562 270 204.7890625 180 c 2
 204.7890625 150 l 1
 204.7890625 150 264.000976562 150 324.000976562 150 c 0x66
 384.000976562 150 384.000976562 150 384.000976562 207.609375 c 2
 384.000976562 240 l 1
 564.000976562 240 l 1x86
 564.000976562 0 l 1
 444.000976562 0 l 1x81
 444.000976562 90 l 2
 444.000976562 30 414.000976562 0 354.000976562 0 c 2
 24.7890625 0 l 1x45
EndSplineSet
Validated: 524321
EndChar

StartChar: three
Encoding: 51 51 78
Width: 588
VWidth: 0
Flags: W
HStem: 0.000976562 209.999<24 144 167.928 204> 0.000976562 149.999<205.721 382.689> 270 180<234 381.726> 510 210<24 144 167.928 204> 568.438 151.562<205.721 382.493>
VStem: 24 180<151.57 210 510 566.909> 24 120<0.000976562 90.001 630 720> 383.759 180.24<151.444 268.329 451.497 567.815>
LayerCount: 2
UndoRedoHistory
Layer: 1
Undoes
EndUndoes
Redoes
EndRedoes
EndUndoRedoHistory
Fore
SplineSet
24 510 m 1x35
 24 720 l 1
 144 720 l 1x33
 144 630 l 2
 144 690 174 720 234 720 c 2
 444 719.999023438 l 1
 525.693359375 717.5234375 562.275390625 674.447265625 563.999023438 599.999023438 c 1
 564 419.999023438 l 1
 556.16015625 390.87890625 543.47265625 365.39453125 504 359.999023438 c 1
 538 355.999023438 558 335.999023438 564 299.999023438 c 1
 563.999023438 120 l 1
 566.525390625 28.521484375 517.232421875 -0.228515625 444 0 c 2
 234 0.0009765625 l 2x6b
 174 0.0009765625 144 30.0009765625 144 90.0009765625 c 2
 144 0.0009765625 l 1
 24 0.0009765625 l 1
 24 210.000976562 l 1xa3
 204 210 l 1xa5
 204 150 204 150 264 150 c 2
 324 150 l 2
 384 150 384.260742188 151.139648438 383.758789062 206.178710938 c 0
 383.177734375 269.999023438 384.000976562 269.999023438 324 269.999023438 c 2
 234 270 l 1
 234 450 l 1
 324 449.999023438 l 2
 384.000976562 449.999023438 382.71484375 449.999023438 383.537109375 507.232421875 c 0
 384 570 384 570 324 568.438476562 c 1
 264 568.438476562 l 2x6d
 204 568.438476562 204 568.438476562 204 510 c 1
 24 510 l 1x35
EndSplineSet
Validated: 524321
EndChar

StartChar: four
Encoding: 52 52 79
Width: 586
VWidth: 0
Flags: W
HStem: 0 21G<293 473> 120 150<203 293 473 563> 700 20G<188 383>
VStem: 293 180<0 120 270 390>
LayerCount: 2
UndoRedoHistory
Layer: 1
Undoes
EndUndoes
Redoes
EndRedoes
EndUndoRedoHistory
Fore
SplineSet
203 720 m 1
 383 720 l 1
 353 630 293 420 203 300 c 1
 203 270 l 1
 293 270 l 1
 293 390 l 1
 473 390 l 1
 473 270 l 1
 563 270 l 1
 563 120 l 1
 473 120 l 1
 473 0 l 1
 293 0 l 1
 293 120 l 1
 23 120 l 1
 23 300 l 1
 113 420 173 600 203 720 c 1
EndSplineSet
Validated: 1
EndChar

StartChar: five
Encoding: 53 53 80
Width: 588
VWidth: 0
Flags: W
HStem: 0 210<55.8232 204> 0 150<205.57 382.43> 270 180<204 382.43> 480 240<384 420.072 444 564> 570 150<205.57 382.279>
VStem: 24 180<151.57 210 450 568.43> 384 180<151.57 268.43 480 568.43> 444 120<630 720>
LayerCount: 2
UndoRedoHistory
Layer: 1
Undoes
EndUndoes
Redoes
EndRedoes
EndUndoRedoHistory
Fore
SplineSet
24 210 m 1xa5
 204 210 l 1xa5
 204 150 204 150 264 150 c 2
 324 150 l 2x65
 384 150 384 150 384 210 c 0
 384 270 384 270 324 270 c 2
 24 270 l 1
 24 720 l 1
 354 720 l 2xae
 414 720 444 690 444 630 c 2
 444 720 l 1
 564 720 l 1x35
 564 480 l 1
 384 480 l 1
 384 510 l 2x36
 384 570 384 570 324 570 c 2
 264 570 l 2
 204 570 204 570 204 510 c 2
 204 450 l 1
 444 450 l 2
 534 450 564 420 564 330 c 2
 564 120 l 2
 564 30 534 0 444 0 c 2x6d
 144 0 l 2
 54 0 24 30 24 120 c 2
 24 210 l 1xa5
EndSplineSet
Validated: 1
EndChar

StartChar: six
Encoding: 54 54 81
Width: 585
VWidth: 0
Flags: W
HStem: 0.521484 149.896<204.391 380.89> 270 180<203 381.456> 479.817 239.583<353.104 389.432 413.339 533> 570.521 148.879<204.26 349.322>
VStem: 23 179.817<151.986 270 450 568.974> 382.691 180.1<151.615 268.299> 413.339 119.896<629.479 719.4>
LayerCount: 2
UndoRedoHistory
Layer: 1
Undoes
EndUndoes
Redoes
EndRedoes
EndUndoRedoHistory
Fore
SplineSet
143.234375 720 m 2xdc
 323.416992188 719.400390625 l 2xdc
 383.365234375 719.400390625 413.338867188 689.426757812 413.338867188 629.478515625 c 2
 413.338867188 719.400390625 l 1xea
 533.234375 719.400390625 l 1xda
 533 480 l 1
 353.104492188 479.817382812 l 1xea
 353.104492188 509.791015625 l 2
 353.104492188 569.739257812 353.104492188 569.739257812 293.15625 569.739257812 c 1
 262.895507812 570.521484375 l 1
 202.948242188 570.521484375 202.8984375 570.424804688 202.948242188 512.072265625 c 2
 203 450 l 1
 443.234375 449.583007812 l 2
 533 450 563 420 563 330 c 2
 562.791015625 120 l 2
 563 30 533 0 442.895507812 0.1044921875 c 2
 142.895507812 0.521484375 l 2
 53 0 23 30 23 120.416992188 c 2
 23.3388671875 600.104492188 l 2
 23 690 53.3125 720 143.234375 720 c 2xdc
203 270 m 1
 202.817382812 210.365234375 l 2
 202.817382812 150.416992188 202.84375 150.416992188 262.791015625 150.416992188 c 2
 323 150 l 2
 383 150 382.016601562 150 382.69140625 211.727539062 c 0
 383.301757812 267.626953125 383 270 323 270 c 2
 203 270 l 1
EndSplineSet
Validated: 524321
EndChar

StartChar: seven
Encoding: 55 55 82
Width: 589
VWidth: 0
Flags: W
HStem: 0 21G<175 355> 480 240<25.2266 145 168.928 205> 570 150<206.721 385.227>
VStem: 25 120<630 720> 175 180<0 218.511> 385 180<498.32 570>
LayerCount: 2
UndoRedoHistory
Layer: 1
Undoes
EndUndoes
Redoes
EndRedoes
EndUndoRedoHistory
Fore
SplineSet
565 720 m 1xbc
 565 480 l 1xdc
 355.2265625 360 355 120 355 0 c 1
 175 0 l 1
 175 120 175 390 385 510 c 1
 385.2265625 570 l 1
 265 570 l 2xbc
 205 570 205 570 205 509.439453125 c 2
 205 480 l 1
 25.2265625 480 l 1xdc
 25 720 l 1xbc
 145 720 l 1xdc
 145 630 l 2
 145 690 175 720 235 720 c 2
 565 720 l 1xbc
EndSplineSet
Validated: 524289
EndChar

StartChar: eight
Encoding: 56 56 83
Width: 589
VWidth: 0
Flags: W
HStem: 0.272461 149.755<206.638 383.403> 270 180.027<206.638 383.398> 570 150<206.632 383.398>
VStem: 25.123 179.945<151.597 268.425 451.597 568.425> 384.973 179.891<151.569 268.398 451.569 568.398>
LayerCount: 2
UndoRedoHistory
Layer: 1
Undoes
EndUndoes
Redoes
EndRedoes
EndUndoRedoHistory
Fore
SplineSet
145 720 m 2
 444.849609375 719.97265625 l 2
 534.809570312 719.97265625 564.795898438 689.986328125 564.795898438 600.02734375 c 2
 564.86328125 419.97265625 l 2
 564.86328125 389.986328125 534.876953125 360 504.890625 360 c 1
 534.876953125 360 564.86328125 330.013671875 564.86328125 300.02734375 c 2
 564.741210938 120.190429688 l 2
 564.741210938 36.2294921875 524.758789062 -3.7529296875 444.795898438 0.2451171875 c 1
 144.9453125 0.2724609375 l 2
 54.986328125 0.2724609375 25 30.2587890625 25 120.217773438 c 2
 25.123046875 300.0546875 l 2
 25.123046875 330.041015625 55.109375 360.02734375 85.095703125 360.02734375 c 1
 55.109375 360.02734375 25.123046875 390.013671875 25.123046875 420 c 2
 25.0546875 600.0546875 l 2
 25.0546875 690.013671875 55.041015625 720 145 720 c 2
265.013671875 570 m 2
 205.041015625 570 205.068359375 569.97265625 205.068359375 510 c 0
 205.068359375 450.02734375 205.068359375 450.02734375 265.041015625 450.02734375 c 2
 325 450 l 2
 384.97265625 450 384.97265625 450 384.97265625 509.97265625 c 0
 384.97265625 569.9453125 384.9453125 569.97265625 324.97265625 569.97265625 c 2
 265.013671875 570 l 2
265.013671875 270 m 2
 205.041015625 270 205.068359375 269.97265625 205.068359375 210 c 0
 205.068359375 150.02734375 205.068359375 150.02734375 265.041015625 150.02734375 c 2
 325 150 l 2
 384.97265625 150 384.97265625 150 384.97265625 209.97265625 c 0
 384.97265625 269.9453125 384.9453125 269.97265625 324.97265625 269.97265625 c 2
 265.013671875 270 l 2
EndSplineSet
Validated: 524321
EndChar

StartChar: nine
Encoding: 57 57 84
Width: 589
VWidth: 0
Flags: W
HStem: 0 239.583<24.417 144.078 167.985 204.312> 0 150<205.746 382.74> 270.521 179.583<205.544 384> 570.104 149.896<206.11 382.609>
VStem: 24.1826 119.896<0 89.9219> 24.417 179.896<151.497 239.4 451.806 568.489> 384.052 179.609<151.13 270.104 450.104 568.118>
LayerCount: 2
UndoRedoHistory
Layer: 1
Undoes
EndUndoes
Redoes
EndRedoes
EndUndoRedoHistory
Fore
SplineSet
443.765625 0.1044921875 m 2x76
 234 0 l 2x76
 174.051757812 0 144.078125 29.9736328125 144.078125 89.921875 c 2
 144.078125 0 l 1xba
 24.1826171875 0 l 1x7a
 24.4169921875 239.400390625 l 1
 204.3125 239.583007812 l 1xb6
 204.3125 209.609375 l 2
 204.3125 149.661132812 204.051757812 150 264 150 c 2
 324.104492188 149.583007812 l 2
 384.051757812 149.583007812 384.1015625 149.6796875 384.051757812 208.032226562 c 2
 384 270.104492188 l 1
 143.765625 270.521484375 l 2
 54 270.104492188 24 300.104492188 24 390.104492188 c 2
 24.208984375 600.104492188 l 2
 24 690.104492188 54 720.104492188 144.104492188 720 c 2
 444.104492188 719.583007812 l 2
 534 720.104492188 564 690.104492188 564 599.686523438 c 2
 563.661132812 120 l 2
 564 30.1044921875 533.6875 0.1044921875 443.765625 0.1044921875 c 2x76
384 450.104492188 m 1
 384.182617188 509.739257812 l 2
 384.182617188 569.686523438 384.15625 569.686523438 324.208984375 569.686523438 c 2
 264 570.104492188 l 2
 204 570.104492188 204.983398438 570.104492188 204.30859375 508.375976562 c 0
 203.698242188 452.477539062 204 450.104492188 264 450.104492188 c 2
 384 450.104492188 l 1
EndSplineSet
Validated: 524321
EndChar

StartChar: semicolon
Encoding: 59 59 85
Width: 229
VWidth: 0
Flags: WO
HStem: 0 21G<24 84> 300 180<24 204>
VStem: 24 90<0 60> 114 90<-118.43 60>
LayerCount: 2
UndoRedoHistory
Layer: 1
Undoes
EndUndoes
Redoes
EndRedoes
EndUndoRedoHistory
Fore
SplineSet
24 180 m 1xe0
 204 180 l 1
 204 0 l 1
 204 -60 l 2
 204 -120 204 -120 144 -120 c 2
 114 -120 l 1xd0
 114 60 l 2
 114 0 114 0 54 0 c 2
 24 0 l 1
 24 180 l 1xe0
24 480 m 1xe0
 204 480 l 1
 204 300 l 1xd0
 24 300 l 1
 24 480 l 1xe0
EndSplineSet
Validated: 1
EndChar

StartChar: bracketleft
Encoding: 91 91 91
Width: 469
VWidth: 0
Flags: W
HStem: -30 150<204 444> 600 150<204 444>
VStem: 24 180<120 600>
LayerCount: 2
UndoRedoHistory
Layer: 1
Undoes
EndUndoes
Redoes
EndRedoes
EndUndoRedoHistory
Fore
SplineSet
24 750 m 1
 444 750 l 1
 444 600 l 1
 204 600 l 1
 204 120 l 1
 444 120 l 1
 444 -30 l 1
 24 -30 l 1
 24 750 l 1
EndSplineSet
Validated: 1
EndChar

StartChar: backslash
Encoding: 92 92 92
Width: 518
VWidth: 0
Flags: W
HStem: 0 21G<310.667 499> 700 20G<19 207.333>
LayerCount: 2
UndoRedoHistory
Layer: 1
Undoes
EndUndoes
Redoes
EndRedoes
EndUndoRedoHistory
Fore
SplineSet
499 0 m 1
 319 0 l 1
 44.8583984375 657.940429688 l 1
 19 720 l 1
 79 720 l 1
 199 720 l 1
 499 0 l 1
EndSplineSet
Validated: 524289
EndChar

StartChar: bracketright
Encoding: 93 93 93
Width: 469
VWidth: 0
Flags: W
HStem: -30 150<24 264> 600 150<24 264>
VStem: 264 180<120 600>
LayerCount: 2
UndoRedoHistory
Layer: 1
Undoes
EndUndoes
Redoes
EndRedoes
EndUndoRedoHistory
Fore
SplineSet
444 -30 m 1
 24 -30 l 1
 24 120 l 1
 264 120 l 1
 264 600 l 1
 24 600 l 1
 24 750 l 1
 444 750 l 1
 444 -30 l 1
EndSplineSet
Validated: 1
EndChar

StartChar: a
Encoding: 97 97 97
Width: 610
VWidth: 0
Flags: W
HStem: 0 120<200.039 349.887 530 590> 180 120<200.025 349.961> 330 150<50 170 176.18 230> 360 120<230.039 349.975>
VStem: 20 180<120.04 179.961> 50 120<420 480> 350 180<120.049 179.961 300.039 360.104>
LayerCount: 2
UndoRedoHistory
Layer: 1
Undoes
EndUndoes
Redoes
EndRedoes
EndUndoRedoHistory
Fore
SplineSet
50 480 m 1xe6
 170 480 l 1
 170 420 l 2
 170 450 170 480 230 480 c 2xe6
 410 480 l 2
 500 480 530 450 530 360 c 2xd6
 530 120 l 1
 590 120 l 1
 590 0 l 1
 470 0 l 2
 440 0 410 30 410 60 c 1
 410 30 380 0 350 0 c 2
 140 0 l 2
 50 0 20 30 20 120 c 2
 20 180 l 2
 20 270 50 300 140 300 c 2
 320 300 l 2
 350 300 350 300 350 330 c 0xea
 350 364.485351562 350 360 320 360 c 2
 260 360 l 2xda
 230 360 230 360 230 330 c 1
 50 330 l 1
 50 480 l 1xe6
230 180 m 2
 200 180 200 180 200 150.51171875 c 0xca
 200 120 200 120 230 120 c 2
 320 120 l 2
 347.6796875 120.036132812 350 120 350 150 c 0
 350 180 350 180 320 180 c 2
 230 180 l 2
EndSplineSet
Validated: 524321
EndChar

StartChar: b
Encoding: 98 98 98
Width: 608
VWidth: 0
Flags: W
HStem: 0 120<273.685 406.961> 360 120<272.688 406.961> 600 120<17 77>
VStem: 77 180<16.6855 60 120 360 420 600> 407 180<120.039 359.961>
LayerCount: 2
UndoRedoHistory
Layer: 1
Undoes
EndUndoes
Redoes
EndRedoes
EndUndoRedoHistory
Fore
SplineSet
17 720 m 1
 257 720 l 1
 257 420 l 2
 257 452.696289062 287 480 317 480 c 2
 467 480 l 2
 557 480 587 450 587 360 c 2
 587 120 l 2
 587 30 557 0 467 0 c 2
 317 0 l 2
 287 0 257 30 257 60 c 1
 257 30 227 0 197 0 c 2
 77 0 l 1
 77 600 l 1
 17 600 l 1
 17 720 l 1
257 360 m 1
 257 120 l 1
 377 120 l 2
 407 120 407 120 407 150 c 2
 407 330 l 2
 407 360 407 360 377 360 c 2
 257 360 l 1
EndSplineSet
Validated: 524289
EndChar

StartChar: c
Encoding: 99 99 99
Width: 529
VWidth: 0
Flags: W
HStem: 0 180<325.422 367.315 384 504> 0 120<204.039 324.471> 300 180<324 367.315 384 504> 360 120<204.039 323.961>
VStem: 24 180<120.039 359.961> 324.722 179.278<120.04 180 300 359.961> 384 120<0 60 420 480>
LayerCount: 2
UndoRedoHistory
Layer: 1
Undoes
EndUndoes
Redoes
EndRedoes
EndUndoRedoHistory
Fore
SplineSet
24 120 m 2x4a
 24 360 l 2
 24 450 54 480 144 480 c 2x5a
 324 480 l 2
 354 480 384 450 384 420 c 2
 384 480 l 1
 504 480 l 1x2a
 504 300 l 1
 324 300 l 1x2c
 324 330 l 2
 324 360 324 360 294 360 c 2
 234 360 l 2
 204 360 204 360 204 330 c 2
 204 150 l 2
 204 120 204 120 234 120 c 2
 294 120 l 2x5c
 324 120 324 120 324.721679688 150.452148438 c 2
 325.421875 180 l 1
 504 180 l 1x8c
 504 0 l 1
 384 0 l 1x8a
 384 60 l 2
 384 30 354 0 324 0 c 2
 144 0 l 2
 54 0 24 30 24 120 c 2x4a
EndSplineSet
Validated: 524289
EndChar

StartChar: d
Encoding: 100 100 100
Width: 609
VWidth: 0
Flags: W
HStem: 0 120<201.039 334.315 531 591> 360 120<201.039 334.315> 600 120<291 351>
VStem: 21 180<120.039 359.961> 351 180<120 360 420 600>
LayerCount: 2
UndoRedoHistory
Layer: 1
Undoes
EndUndoes
Redoes
EndRedoes
EndUndoRedoHistory
Fore
SplineSet
531 720 m 1
 531 120 l 1
 591 120 l 1
 591 0 l 1
 411 0 l 2
 381 0 351 30 351 60 c 1
 351 30 321 0 291 0 c 2
 141 0 l 2
 51 0 21 30 21 120 c 2
 21 360 l 2
 21 450 51 480 141 480 c 2
 291 480 l 2
 321 480 351 450 351 420 c 2
 351 600 l 1
 291 600 l 1
 291 720 l 1
 531 720 l 1
351 360 m 1
 231 360 l 2
 201 360 201 360 201 330 c 2
 201 150 l 2
 201 120 201 120 231 120 c 2
 351 120 l 1
 351 360 l 1
EndSplineSet
Validated: 1
EndChar

StartChar: e
Encoding: 101 101 101
Width: 529
VWidth: 0
Flags: W
HStem: 0 150<325.5 367.315 384 504> 0 120<202.539 325.02> 180 120<202.5 324> 360 120<202.539 323.957>
VStem: 24 178.5<120.039 180 300 359.961> 384 120<0 60>
LayerCount: 2
UndoRedoHistory
Layer: 1
Undoes
EndUndoes
Redoes
EndRedoes
EndUndoRedoHistory
Fore
SplineSet
144 480 m 2x7c
 384 480 l 2
 474 480 504 450 504 360 c 2
 504 180 l 1
 324 180 l 1
 202.5 180 l 1
 202.5 150 l 2xbc
 202.5 120 202.5 120 232.5 120 c 2
 294 120 l 2x7c
 324 120 324 120 325.5 150 c 1
 504 150 l 1
 504 0 l 1
 384 0 l 1xbc
 384 60 l 2
 384 30 354 0 324 0 c 2
 144 0 l 2
 54 0 24 30 24 120 c 2
 24 360 l 2
 24 450 54 480 144 480 c 2x7c
202.5 330 m 2
 202.5 300 l 1
 324 300 l 1
 324 330 l 2
 324 360 324 360 291 360 c 2
 232.5 360 l 2
 202.5 360 202.5 360 202.5 330 c 2
EndSplineSet
Validated: 524289
EndChar

StartChar: f
Encoding: 102 102 102
Width: 609
VWidth: 0
Flags: W
HStem: 0 120<19 79 259 319> 360 120<19 79 259 379> 540 180<409 445.072 469 589> 600 120<259.039 407.279>
VStem: 79 180<120 360 480 599.961> 469 120<630 720>
LayerCount: 2
UndoRedoHistory
Layer: 1
Undoes
EndUndoes
Redoes
EndRedoes
EndUndoRedoHistory
Fore
SplineSet
199 720 m 2xdc
 379 720 l 2xdc
 439 720 469 690 469 630 c 2
 469 720 l 1
 589 720 l 1
 589 540 l 1
 409 540 l 1xec
 409 570 l 2
 409 600 409 600 379 600 c 2
 289 600 l 2
 259 600 259 600 259 570 c 2
 259 480 l 1
 379 480 l 1
 379 360 l 1
 259 360 l 1
 259 120 l 1
 319 120 l 1
 319 0 l 1
 19 0 l 1
 19 120 l 1
 79 120 l 1
 79 360 l 1
 19 360 l 1
 19 480 l 1
 79 480 l 1
 79 600 l 2
 79 690 109 720 199 720 c 2xdc
EndSplineSet
Validated: 1
EndChar

StartChar: g
Encoding: 103 103 103
Width: 578
VWidth: 0
Flags: W
HStem: -240 180<21 141 157.685 201> -240 120<201.039 321> 0 120<201.039 304.315> 360 120<201.039 321 501 561>
VStem: 21 180<-119.961 -60 120.039 359.961> 21 120<-240 -180> 321 180<-120 60 120 360> 441 120<420 480>
LayerCount: 2
UndoRedoHistory
Layer: 1
Undoes
EndUndoes
Redoes
EndRedoes
EndUndoRedoHistory
Fore
SplineSet
141 480 m 2x76
 381 480 l 2
 411 480 441 450 441 420 c 2
 441 480 l 1
 561 480 l 1
 561 360 l 1x75
 501 360 l 1
 501 -123 l 2
 501 -210 471 -240 381 -240 c 2x72
 201 -240 l 2xba
 171 -240 141 -210 141 -180 c 2
 141 -240 l 1
 21 -240 l 1xb4
 21 -60 l 1
 201 -60 l 1
 201 -90 l 2xb8
 201 -120 201 -120 231 -120 c 2
 321 -120 l 1
 321 60 l 2
 321 30 291 0 261 0 c 2
 141 0 l 2
 51 0 21 30 21 120 c 2
 21 360 l 2
 21 450 51 480 141 480 c 2x76
231 360 m 2
 201 360 201 360 201 330 c 2
 201 150 l 2
 201 120 201 120 231 120 c 2
 321 120 l 1
 321 360 l 1x3a
 231 360 l 2
EndSplineSet
Validated: 1
EndChar

StartChar: h
Encoding: 104 104 104
Width: 674
VWidth: 0
Flags: W
HStem: 0 120<22 82 262 292 382 412 592 652> 358.5 120<278.685 411.975> 600 120<22 82>
VStem: 82 180<120 358.463 418.5 600> 412 180<120 358.463>
LayerCount: 2
UndoRedoHistory
Layer: 1
Undoes
EndUndoes
Redoes
EndRedoes
EndUndoRedoHistory
Fore
SplineSet
22 720 m 1
 262 720 l 1
 262 418.5 l 2
 262 448.5 292 478.5 322 478.5 c 2
 472 478.5 l 2
 562 478.5 592 448.5 592 358.5 c 2
 592 120 l 1
 652 120 l 1
 652 0 l 1
 382 0 l 1
 382 120 l 1
 412 120 l 1
 412 330 l 2
 412 358.5 412 358.5 382 358.5 c 2
 292 358.5 l 2
 262 358.5 262 358.5 262 330 c 2
 262 118.3125 l 1
 292 120 l 1
 292 0 l 1
 22 0 l 1
 22 120 l 1
 82 120 l 1
 82 600 l 1
 22 600 l 1
 22 720 l 1
EndSplineSet
Validated: 524289
EndChar

StartChar: i
Encoding: 105 105 105
Width: 347
VWidth: 0
Flags: W
HStem: 0 120<22 82 262 322> 360 120<22 82> 570 150<82 262>
VStem: 82 180<120 360 570 720>
LayerCount: 2
UndoRedoHistory
Layer: 1
Undoes
EndUndoes
Redoes
EndRedoes
EndUndoRedoHistory
Fore
SplineSet
22 480 m 1
 262 480 l 1
 262 120 l 1
 322 120 l 1
 322 0 l 1
 22 0 l 1
 22 120 l 1
 82 120 l 1
 82 360 l 1
 22 360 l 1
 22 480 l 1
82 720 m 1
 262 720 l 1
 262 570 l 1
 82 570 l 1
 82 720 l 1
EndSplineSet
Validated: 1
EndChar

StartChar: j
Encoding: 106 106 106
Width: 523
VWidth: 0
Flags: W
HStem: -240 180<20 140 156.685 200> -240 120<200.039 319.993> 360 120<260 320> 570 150<320 500>
VStem: 20 120<-240 -180> 320 180<-119.966 360 570 720>
LayerCount: 2
UndoRedoHistory
Layer: 1
Undoes
EndUndoes
Redoes
EndRedoes
EndUndoRedoHistory
Fore
SplineSet
260 480 m 1x7c
 500 480 l 1
 500 -120 l 2
 499.400390625 -209.998046875 470 -240 380 -240 c 2x7c
 200 -240 l 2
 170 -240 140 -210 140 -180 c 2
 140 -240 l 1
 20 -240 l 1
 20 -60 l 1
 200 -60 l 1xbc
 200 -90 l 2
 200 -120 200 -120 230 -120 c 2
 290 -120 l 2
 320 -120 320 -120 320 -94 c 2
 320 360 l 1
 260 360 l 1
 260 480 l 1x7c
320 720 m 1
 500 720 l 1
 500 570 l 1
 320 570 l 1
 320 720 l 1
EndSplineSet
Validated: 524289
EndChar

StartChar: k
Encoding: 107 107 107
Width: 644
VWidth: 0
Flags: W
HStem: 0 120<21 81 261 321 515.088 621> 360 120<321 354.197 509.527 621> 600 120<21 81>
VStem: 81 180<270 600>
LayerCount: 2
UndoRedoHistory
Layer: 1
Undoes
EndUndoes
Redoes
EndRedoes
EndUndoRedoHistory
Fore
SplineSet
21 720 m 1
 261 720 l 1
 261 270 l 1
 354.197265625 360 l 1
 321 360 l 1
 321 480 l 1
 621 480 l 1
 621 360 l 1
 509.52734375 360 l 1
 426.717773438 280.03125 l 1
 477.063476562 185.515625 513.870117188 120 561 120 c 2
 621 120 l 1
 621 0 l 1
 501 0 l 2
 441 0 388.298828125 111.301757812 337.952148438 194.3125 c 1
 261 120 l 1
 321 120 l 1
 321 0 l 1
 21 0 l 1
 21 120 l 1
 81 120 l 1
 81 600 l 1
 21 600 l 1
 21 720 l 1
EndSplineSet
Validated: 524289
EndChar

StartChar: l
Encoding: 108 108 108
Width: 404
VWidth: 0
Flags: W
HStem: 0 120<22 82 262 382> 600 120<22 82>
VStem: 82 180<120 600>
LayerCount: 2
UndoRedoHistory
Layer: 1
Undoes
EndUndoes
Redoes
EndRedoes
EndUndoRedoHistory
Fore
SplineSet
22 720 m 1
 262 720 l 1
 262 120 l 1
 382 120 l 1
 382 0 l 1
 22 0 l 1
 22 120 l 1
 82 120 l 1
 82 600 l 1
 22 600 l 1
 22 720 l 1
EndSplineSet
Validated: 1
EndChar

StartChar: m
Encoding: 109 109 109
Width: 937
VWidth: 0
Flags: W
HStem: 0 120<14.9082 74.9082 254.909 284.909 344.908 374.908 554.909 584.908 644.908 674.908 854.908 914.908> 360.001 119.999<14.9082 74.9082 271.595 374.869 571.594 674.869>
VStem: 74.9082 180.001<119.999 359.999> 374.908 180.001<120.126 359.96> 674.908 180<120 359.962>
LayerCount: 2
UndoRedoHistory
Layer: 0
Undoes
EndUndoes
Redoes
EndRedoes
EndUndoRedoHistory
UndoRedoHistory
Layer: 1
Undoes
EndUndoes
Redoes
EndRedoes
EndUndoRedoHistory
Fore
SplineSet
14.908203125 480 m 1
 254.909179688 480 l 1
 254.909179688 420 l 2
 254.909179688 450 284.909179688 480 314.909179688 480 c 2
 494.909179688 480 l 2
 524.909179688 480 554.909179688 450 554.909179688 420 c 1
 554.909179688 450 584.908203125 480 614.908203125 480 c 2
 734.909179688 480 l 2
 824.908203125 480 854.908203125 450 854.908203125 360.000976562 c 2
 854.908203125 120 l 1
 914.908203125 120 l 1
 914.908203125 0 l 1
 644.908203125 0 l 1
 644.908203125 120 l 1
 674.908203125 120 l 1
 674.908203125 330.000976562 l 2
 674.908203125 360.000976562 674.908203125 360.000976562 644.908203125 360.000976562 c 2
 554.909179688 360.000976562 l 1
 554.909179688 120 l 1
 584.908203125 120 l 1
 584.908203125 0 l 1
 344.908203125 0 l 1
 344.908203125 120 l 1
 374.908203125 120.125976562 l 1
 374.908203125 329.999023438 l 2
 374.908203125 359.999023438 374.908203125 359.999023438 344.908203125 359.999023438 c 2
 254.909179688 359.999023438 l 1
 254.909179688 119.997070312 l 1
 284.909179688 119.997070312 l 1
 284.909179688 -0.001953125 l 1
 14.908203125 0 l 1
 14.908203125 119.999023438 l 1
 74.908203125 119.999023438 l 1
 74.908203125 360.000976562 l 1
 14.908203125 360.000976562 l 1
 14.908203125 480 l 1
EndSplineSet
Validated: 524289
EndChar

StartChar: n
Encoding: 110 110 110
Width: 675
VWidth: 0
Flags: W
HStem: 0 120<22 82 262 292 382 412 592 652> 360 120<22 82 278.685 411.961>
VStem: 82 180<120 360> 412 180<120 359.961>
LayerCount: 2
UndoRedoHistory
Layer: 1
Undoes
EndUndoes
Redoes
EndRedoes
EndUndoRedoHistory
Fore
SplineSet
22 480 m 1
 262 480 l 1
 262 420 l 2
 262 450 292 480 322 480 c 2
 472 480 l 2
 562 480 592 450 592 360 c 2
 592 120 l 1
 652 120 l 1
 652 0 l 1
 382 0 l 1
 382 120 l 1
 412 120 l 1
 412 330 l 2
 412 360 412 360 382 360 c 2
 262 360 l 1
 262 120 l 1
 292 120 l 1
 292 0 l 1
 22 0 l 1
 22 120 l 1
 82 120 l 1
 82 360 l 1
 22 360 l 1
 22 480 l 1
EndSplineSet
Validated: 1
EndChar

StartChar: o
Encoding: 111 111 111
Width: 560
VWidth: 0
Flags: W
HStem: 0.00195312 119.998<206.57 352.247> 360 120.002<206.57 353.267>
VStem: 25 180<121.57 358.43> 353.499 181.501<121.334 358.666>
LayerCount: 2
UndoRedoHistory
Layer: 1
Undoes
EndUndoes
Redoes
EndRedoes
EndUndoRedoHistory
Fore
SplineSet
148.000976562 480.001953125 m 2
 418.001953125 480.001953125 l 2
 507.776367188 480.001953125 534.325195312 450 535 360 c 2
 535 120 l 1
 532.302734375 29.9990234375 506.196289062 -0.0009765625 415 0 c 2
 147.696289062 0.001953125 l 2
 55 0.0009765625 25 30.0009765625 25 120.000976562 c 2
 25 360 l 2
 25 450 58.001953125 480.001953125 148.000976562 480.001953125 c 2
265 360 m 2
 205 360 205 360 205 300 c 2
 205 180 l 2
 205 120 205 120 265 120 c 2
 295 120 l 2
 355 120 353.499023438 119.998046875 353.499023438 179.998046875 c 2
 355.000976562 300 l 1
 354.62890625 360.002929688 355 360 295 360 c 2
 265 360 l 2
EndSplineSet
Validated: 524321
EndChar

StartChar: p
Encoding: 112 112 112
Width: 609
VWidth: 0
Flags: W
HStem: -240 120<19 79 259 319> 0 120<259 408.961> 360 120<19 79 275.685 408.961>
VStem: 79 180<-120 0 120 360> 409 180<120.039 359.961>
LayerCount: 2
UndoRedoHistory
Layer: 1
Undoes
EndUndoes
Redoes
EndRedoes
EndUndoRedoHistory
Fore
SplineSet
19 480 m 1
 259 480 l 1
 259 420 l 2
 259 450 289 480 319 480 c 2
 469 480 l 2
 559 480 589 450 589 360 c 2
 589 120 l 2
 589 30 559 0 469 0 c 2
 259 0 l 1
 259 -120 l 1
 319 -120 l 1
 319 -240 l 1
 19 -240 l 1
 19 -120 l 1
 79 -120 l 1
 79 360 l 1
 19 360 l 1
 19 480 l 1
259 360 m 1
 259 120 l 1
 379 120 l 2
 409 120 409 120 409 150 c 2
 409 330 l 2
 409 360 409 360 379 360 c 2
 259 360 l 1
EndSplineSet
Validated: 1
EndChar

StartChar: q
Encoding: 113 113 113
Width: 609
VWidth: 0
Flags: W
HStem: -240 120<531 591> 0 120<201.039 351> 360 120<201.039 334.315>
VStem: 21 180<120.039 359.961> 351 180<-120 0 120 360 420 480>
LayerCount: 2
UndoRedoHistory
Layer: 1
Undoes
EndUndoes
Redoes
EndRedoes
EndUndoRedoHistory
Fore
SplineSet
531 480 m 1
 531 -120 l 1
 591 -120 l 1
 591 -240 l 1
 351 -240 l 1
 351 0 l 1
 141 0 l 2
 51 0 21 30 21 120 c 2
 21 360 l 2
 21 450 51 480 141 480 c 2
 291 480 l 2
 321 480 351 450 351 420 c 2
 351 480 l 1
 531 480 l 1
351 360 m 1
 231 360 l 2
 201 360 201 360 201 330 c 2
 201 150 l 2
 201 120 201 120 231 120 c 2
 351 120 l 1
 351 360 l 1
EndSplineSet
Validated: 1
EndChar

StartChar: r
Encoding: 114 114 114
Width: 588
VWidth: 0
Flags: W
HStem: 0 120<24 84 264 324> 300 180<384 427.315 444 564> 360 120<24 84 280.685 383.961>
VStem: 84 180<120 343.315> 444 120<420 480>
LayerCount: 2
UndoRedoHistory
Layer: 1
Undoes
EndUndoes
Redoes
EndRedoes
EndUndoRedoHistory
Fore
SplineSet
24 480 m 1xb8
 264 480 l 1
 264 420 l 2
 264 450 294 480 324 480 c 2xb8
 384 480 l 2
 414 480 444 450 444 420 c 2
 444 480 l 1
 564 480 l 1
 564 300 l 1
 384 300 l 1xd8
 384 330 l 2
 384 360 384 360 354 360 c 2
 324 360 l 2xb8
 294 360 264 330 264 300 c 2xd8
 264 120 l 1
 324 120 l 1
 324 0 l 1
 24 0 l 1
 24 120 l 1
 84 120 l 1
 84 360 l 1
 24 360 l 1
 24 480 l 1xb8
EndSplineSet
Validated: 1
EndChar

StartChar: s
Encoding: 115 115 115
Width: 531
VWidth: 0
Flags: W
HStem: -0.282227 150.282<27.7783 146.272 162.987 206.272> -0.282227 120.188<206.312 329.082> 178.786 120.188<206.32 329.223> 330.188 148.967<329.191 378.635 389.191 509.191> 358.601 120.555<206.242 329.128>
VStem: 27.7783 118.494<0 60> 387.31 121.882<420.188 479.344>
LayerCount: 2
UndoRedoHistory
Layer: 1
Undoes
EndUndoes
Redoes
EndRedoes
EndUndoRedoHistory
Fore
SplineSet
141.376953125 479.155273438 m 2x6e
 329.19140625 480.188476562 l 1
 372.064453125 482.459960938 389.19140625 450.188476562 389.19140625 420.188476562 c 2
 387.309570312 479.34375 l 1
 509.19140625 480.188476562 l 1
 509.19140625 330.188476562 l 1
 329.19140625 330.188476562 l 1x36
 329.19140625 360.282226562 326.366210938 360 296.272460938 360 c 2
 231.66015625 358.600585938 l 1
 204.108398438 359.155273438 206.272460938 360 206.272460938 330 c 0
 206.272460938 300 206.124023438 299.1796875 233.541992188 298.974609375 c 2
 387.309570312 299.060546875 l 2
 477.592773438 299.060546875 509.19140625 270.470703125 509.19140625 180.188476562 c 2
 509.19140625 120.188476562 l 2
 509.19140625 29.9052734375 482.487304688 -0.0947265625 392.205078125 -0.0947265625 c 2
 206.5546875 -0.2822265625 l 2x6e
 176.272460938 0 146.272460938 30 146.272460938 60 c 2
 146.272460938 0 l 1
 27.7783203125 0 l 1
 26.2724609375 150 l 1
 206.272460938 150 l 1xa6
 206.272460938 119.90625 206.272460938 119.90625 236.366210938 119.90625 c 2
 299.19140625 120.188476562 l 2
 329.286132812 120.188476562 328.909179688 120.470703125 329.19140625 150.188476562 c 0
 329.474609375 179.90625 328.909179688 180.470703125 296.743164062 178.786132812 c 1
 143.258789062 178.59765625 l 2
 52.9765625 178.596679688 22.8818359375 208.69140625 22.8818359375 298.974609375 c 1
 21 358.600585938 l 1
 21 447.379882812 51.0947265625 479.155273438 141.376953125 479.155273438 c 2x6e
EndSplineSet
Validated: 524325
EndChar

StartChar: t
Encoding: 116 116 116
Width: 548
VWidth: 0
Flags: W
HStem: 0 180<347 390.315 407 527> 0 120<257.039 346.961> 360 120<17 77 257 377>
VStem: 77 180<120.039 360 480 660> 407 120<0 60>
LayerCount: 2
UndoRedoHistory
Layer: 1
Undoes
EndUndoes
Redoes
EndRedoes
EndUndoRedoHistory
Fore
SplineSet
77 660 m 1x78
 257 660 l 1
 257 480 l 1
 377 480 l 1
 377 360 l 1
 257 360 l 1
 257 150 l 2
 257 120 257 120 287 120 c 2
 317 120 l 2x78
 347 120 347 120 347 150 c 2
 347 180 l 1
 527 180 l 1
 527 0 l 1
 407 0 l 1
 407 60 l 2
 407 30 377 0 347 0 c 2xb8
 197 0 l 2
 107 0 77 30 77 120 c 2
 77 240 l 1
 77 360 l 1
 17 360 l 1
 17 480 l 1
 77 480 l 1
 77 660 l 1x78
EndSplineSet
Validated: 1
EndChar

StartChar: u
Encoding: 117 117 117
Width: 645
VWidth: 0
Flags: W
HStem: 0 120<262.039 365.315 562 622> 360 120<22 82 262 292 352 382 562 622>
VStem: 82 180<120.039 360> 382 180<120 360>
LayerCount: 2
UndoRedoHistory
Layer: 1
Undoes
EndUndoes
Redoes
EndRedoes
EndUndoRedoHistory
Fore
SplineSet
622 0 m 1
 382 0 l 1
 382 60 l 2
 382 30 352 0 322 0 c 2
 202 0 l 2
 112 0 82 30 82 120 c 2
 82 360 l 1
 22 360 l 1
 22 480 l 1
 292 480 l 1
 292 360 l 1
 262 360 l 1
 262 150 l 2
 262 120 262 120 292 120 c 2
 382 120 l 1
 382 360 l 1
 352 360 l 1
 352 480 l 1
 622 480 l 1
 622 360 l 1
 562 360 l 1
 562 120 l 1
 622 120 l 1
 622 0 l 1
EndSplineSet
Validated: 1
EndChar

StartChar: v
Encoding: 118 118 118
Width: 706
VWidth: 0
Flags: W
HStem: 0 21G<281.333 424.547> 360 120<23 83 265.154 323 383 443 620.846 683>
LayerCount: 2
UndoRedoHistory
Layer: 1
Undoes
EndUndoes
Redoes
EndRedoes
EndUndoRedoHistory
Fore
SplineSet
683 480 m 1
 683 360 l 1
 620.845703125 360 l 1
 413 0 l 1
 293 0 l 1
 83 360 l 1
 23 360 l 1
 23 480 l 1
 323 480 l 1
 323 360 l 1
 265.154296875 360 l 1
 354.077148438 205.98046875 l 1
 443 360 l 1
 383 360 l 1
 383 480 l 1
 683 480 l 1
EndSplineSet
Validated: 524289
EndChar

StartChar: w
Encoding: 119 119 119
Width: 886
VWidth: 0
Flags: W
HStem: 0 21G<220.427 360.279 520.427 665.573> 360 120<23 96.6768 246.677 293 593 639.323 789.323 863>
LayerCount: 2
UndoRedoHistory
Layer: 1
Undoes
EndUndoes
Redoes
EndRedoes
EndUndoRedoHistory
Fore
SplineSet
23 360 m 1
 23 480 l 1
 293 480 l 1
 293 360 l 1
 246.676757812 360 l 1
 293 232.7265625 l 1
 383 480 l 1
 503 480 l 1
 593 232.7265625 l 1
 639.323242188 360 l 1
 593 360 l 1
 593 480 l 1
 863 480 l 1
 863 360 l 1
 789.323242188 360 l 1
 658.293945312 0 l 1
 527.706054688 0 l 1
 440.352539062 240 l 1
 353 0 l 1
 227.706054688 0 l 1
 96.6767578125 360 l 1
 23 360 l 1
EndSplineSet
Validated: 524289
EndChar

StartChar: x
Encoding: 120 120 120
Width: 590
VWidth: 0
Flags: W
HStem: 0 120<25 112.186 466.556 565> 360 120<25 112.186 466.556 565>
LayerCount: 2
UndoRedoHistory
Layer: 1
Undoes
EndUndoes
Redoes
EndRedoes
EndUndoRedoHistory
Fore
SplineSet
25 480 m 1
 205 480 l 1
 289.370117188 363.874023438 l 1
 373.740234375 480 l 1
 565 480 l 1
 565 360 l 1
 466.555664062 360 l 1
 379.370117188 240 l 1
 466.555664062 120 l 1
 565 120 l 1
 565 0 l 1
 373.740234375 0 l 1
 292.185546875 120 l 1
 205 0 l 1
 25 0 l 1
 25 120 l 1
 112.185546875 120 l 1
 199.370117188 240 l 1
 112.185546875 360 l 1
 25 360 l 1
 25 480 l 1
EndSplineSet
Validated: 524289
EndChar

StartChar: y
Encoding: 121 121 121
Width: 644
VWidth: 0
Flags: W
HStem: -240 180<82 202 218.685 262> -240 120<262.039 382> 0 120<262.039 365.315> 360 120<22 82 262 292 352 382 562 622>
VStem: 82 180<-119.961 -60 120.039 360> 82 120<-240 -180> 382 180<-120 60 120 360>
LayerCount: 2
UndoRedoHistory
Layer: 1
Undoes
EndUndoes
Redoes
EndRedoes
EndUndoRedoHistory
Fore
SplineSet
292 -120 m 2x7a
 382 -120 l 1
 382 60 l 2
 382 30 352 0 322 0 c 2
 202 0 l 2
 112 0 82 30 82 120 c 2x76
 82 360 l 1
 22 360 l 1
 22 480 l 1
 292 480 l 1
 292 360 l 1
 262 360 l 1
 262 150 l 2
 262 120 262 120 292 120 c 2
 382 120 l 1
 382 360 l 1
 352 360 l 1
 352 480 l 1
 622 480 l 1
 622 360 l 1
 562 360 l 1
 562 -123 l 2
 562 -210 532 -240 442 -240 c 2x7a
 262 -240 l 2xba
 232 -240 202 -210 202 -180 c 2
 202 -240 l 1
 82 -240 l 1xb6
 82 -60 l 1
 262 -60 l 1xba
 262 -90 l 2
 262 -120 262 -120 292 -120 c 2x7a
EndSplineSet
Validated: 1
EndChar

StartChar: z
Encoding: 122 122 122
Width: 528
VWidth: 0
Flags: W
HStem: 0 180<324.366 360.438 385.878 504> 0 120<204 322.645> 300 180<24.001 144 168.294 204.366> 360 120<206.087 324>
VStem: 24.001 120.365<390 480> 385.878 118.122<0 90>
LayerCount: 2
UndoRedoHistory
Layer: 1
Undoes
EndUndoes
Redoes
EndRedoes
EndUndoRedoHistory
Fore
SplineSet
24.0009765625 480 m 1x2c
 144 480 l 1x2c
 144.366210938 390 l 2
 144.366210938 450 174.366210938 480 234.366210938 480 c 2
 504 480 l 1
 504 360 l 1
 204 120 l 1
 294.366210938 120 l 2x5c
 324.366210938 120 324.366210938 120 324.366210938 150 c 2
 324.366210938 180 l 1
 504 180 l 1
 504 0 l 1
 385.877929688 0 l 1x8c
 384.366210938 90 l 1
 384.366210938 30 354.366210938 0 294.366210938 0 c 2
 24 0 l 1
 24 120 l 1
 324 360 l 1
 234 360 l 2x5c
 204.366210938 360 204.366210938 360 204 330 c 2
 204.366210938 300 l 1
 24 300 l 1
 24.0009765625 480 l 1x2c
EndSplineSet
Validated: 524289
EndChar

StartChar: uniFB01
Encoding: 64257 64257 248
Width: 703
VWidth: 0
Flags: W
HStem: 0 120<22 82 262 322 382 442 622 682> 360 120<22 82 262 382> 540 180<442 478.072 502 622> 600 120<262.039 440.279>
VStem: 82 180<120 360 480 599.961> 442 180<120 480 540 599.961> 502 120<630 720>
LayerCount: 2
UndoRedoHistory
Layer: 1
Undoes
EndUndoes
Redoes
EndRedoes
EndUndoRedoHistory
Fore
SplineSet
202 720 m 2xdc
 412 720 l 2xdc
 472 720 502 690 502 630 c 2
 502 720 l 1
 622 720 l 1xea
 622 540 l 1
 442 540 l 1xec
 442 570 l 2
 442 600 442 600 412 600 c 2
 292 600 l 2
 262 600 262 600 262 570 c 2
 262 480 l 1
 382 480 l 1
 382 360 l 1
 262 360 l 1
 262 120 l 1
 322 120 l 1
 322 0 l 1
 22 0 l 1
 22 120 l 1
 82 120 l 1
 82 360 l 1
 22 360 l 1
 22 480 l 1
 82 480 l 1
 82 600 l 2
 82 690 112 720 202 720 c 2xdc
442 480 m 1
 622 480 l 1
 622 120 l 1
 682 120 l 1
 682 0 l 1
 382 0 l 1
 382 120 l 1
 442 120 l 1
 442 480 l 1
EndSplineSet
Validated: 1
LCarets2: 1 0 
Ligature2: "StdLig-1" f i
EndChar

StartChar: uniFB00
Encoding: 64256 64256 249
Width: 999
VWidth: 0
Flags: W
HStem: 0 120<19 79 259 319 379 439 619 679> 360 120<19 79 259 379 619 739> 540 180<799 835.072 859 979> 600 120<259.032 437.978 619.039 797.279>
VStem: 79 180<120 360 480 599.971> 439 180<120 360 480 599.961> 859 120<630 720>
LayerCount: 2
UndoRedoHistory
Layer: 1
Undoes
EndUndoes
Redoes
EndRedoes
EndUndoRedoHistory
Fore
SplineSet
199 720 m 2xde
 409 720 l 2
 440.139648438 720 469 690 469 660 c 1
 469 690 489.899414062 720 529 720 c 2
 769 720 l 2xde
 829 720 859 690 859 630 c 2
 859 720 l 1
 979 720 l 1
 979 540 l 1
 799 540 l 1xee
 799 570 l 2
 799 600 799 600 769 600 c 2
 649 600 l 2
 619 600 619 600 619 570 c 2
 619 480 l 1
 739 480 l 1
 739 360 l 1
 619 360 l 1
 619 120 l 1
 679 120 l 1
 679 0 l 1
 379 0 l 1
 379 120 l 1
 439 120 l 1
 439 575.28125 l 2
 438.890625 600.000976562 437.125 600 409 600 c 2
 283.71875 600 l 2
 258.999023438 599.890625 259 598.125 259 570 c 2
 259 480 l 1
 379 480 l 1
 379 360 l 1
 259 360 l 1
 259 120 l 1
 319 120 l 1
 319 0 l 1
 19 0 l 1
 19 120 l 1
 79 120 l 1
 79 360 l 1
 19 360 l 1
 19 480 l 1
 79 480 l 1
 79 600 l 2
 79 690 109 720 199 720 c 2xde
EndSplineSet
Validated: 524321
LCarets2: 1 0 
Ligature2: "StdLig-1" f f
EndChar

StartChar: uniFB02
Encoding: 64258 64258 250
Width: 733
VWidth: 0
Flags: W
HStem: 0 120<22 82 262 322 382 442 622 712> 360 120<22 82 262 382> 600 120<262.039 442>
VStem: 82 180<120 360 480 599.961> 442 180<120 600>
LayerCount: 2
UndoRedoHistory
Layer: 1
Undoes
EndUndoes
Redoes
EndRedoes
EndUndoRedoHistory
Fore
SplineSet
202 720 m 2
 442 720 l 1
 622 720 l 1
 622 120 l 1
 712 120 l 1
 712 0 l 1
 382 0 l 1
 382 120 l 1
 442 120 l 1
 442 600 l 1
 292 600 l 2
 262 600 262 600 262 570 c 2
 262 480 l 1
 382 480 l 1
 382 360 l 1
 262 360 l 1
 262 120 l 1
 322 120 l 1
 322 0 l 1
 22 0 l 1
 22 120 l 1
 82 120 l 1
 82 360 l 1
 22 360 l 1
 22 480 l 1
 82 480 l 1
 82 600 l 2
 82 690 112 720 202 720 c 2
EndSplineSet
Validated: 1
LCarets2: 1 0 
Ligature2: "StdLig-1" f l
EndChar

StartChar: uniFB03
Encoding: 64259 64259 251
Width: 1062
VWidth: 0
Flags: W
HStem: 0 120<22 82 262 322 382 442 622 682 742 802 982 1042> 360 120<22 82 262 382 622 742> 540 180<802 838.072 862 982> 600 120<262.032 440.978 622.039 800.279>
VStem: 82 180<120 360 480 599.971> 442 180<120 360 480 599.961> 802 180<120 480 540 599.961> 862 120<630 720>
LayerCount: 2
UndoRedoHistory
Layer: 1
Undoes
EndUndoes
Redoes
EndRedoes
EndUndoRedoHistory
Fore
SplineSet
202 720 m 2xde
 412 720 l 2
 443.139648438 720 472 690 472 660 c 1
 472 690 492.899414062 720 532 720 c 2
 772 720 l 2xde
 832 720 862 690 862 630 c 2
 862 720 l 1
 982 720 l 1xed
 982 540 l 1
 802 540 l 1xee
 802 570 l 2
 802 600 802 600 772 600 c 2
 652 600 l 2
 622 600 622 600 622 570 c 2
 622 480 l 1
 742 480 l 1
 742 360 l 1
 622 360 l 1
 622 120 l 1
 682 120 l 1
 682 0 l 1
 382 0 l 1
 382 120 l 1
 442 120 l 1
 442 570 l 2
 442 600 440.125 600 412 600 c 2
 286.71875 600 l 2
 261.999023438 599.890625 262 598.125 262 570 c 2
 262 480 l 1
 382 480 l 1
 382 360 l 1
 262 360 l 1
 262 120 l 1
 322 120 l 1
 322 0 l 1
 22 0 l 1
 22 120 l 1
 82 120 l 1
 82 360 l 1
 22 360 l 1
 22 480 l 1
 82 480 l 1
 82 600 l 1
 74.3046875 689.669921875 112 720 202 720 c 2xde
802 480 m 1
 982 480 l 1
 982 120 l 1
 1042 120 l 1
 1042 0 l 1
 742 0 l 1
 742 120 l 1
 802 120 l 1
 802 360 l 1
 802 480 l 1
EndSplineSet
Validated: 524321
LCarets2: 2 0 0 
Ligature2: "StdLig-1" f f i
EndChar

StartChar: uniFB04
Encoding: 64260 64260 252
Width: 1093
VWidth: 0
Flags: W
HStem: 0 120<22 82 262 322 382 442 622 682 742 802 982 1072> 360 120<22 82 262 382 622 742> 600 120<262.032 440.978 622.039 802>
VStem: 82 180<120 360 480 599.971> 442 180<120 360 480 599.961> 802 180<120 600>
CounterMasks: 1 1c
LayerCount: 2
UndoRedoHistory
Layer: 1
Undoes
EndUndoes
Redoes
EndRedoes
EndUndoRedoHistory
Fore
SplineSet
202 720 m 6
 412 720 l 6
 443.139648438 720 472 690 472 660 c 5
 472 690 492.899414062 720 532 720 c 6
 982 720 l 5
 982 120 l 5
 1072 120 l 5
 1072 0 l 5
 742 0 l 5
 742 120 l 5
 802 120 l 5
 802 600 l 5
 652 600 l 6
 622 600 622 600 622 570 c 6
 622 480 l 5
 742 480 l 5
 742 360 l 5
 622 360 l 5
 622 120 l 5
 682 120 l 5
 682 0 l 5
 382 0 l 5
 382 120 l 5
 442 120 l 5
 442 570 l 6
 442 600 440.125 600 412 600 c 6
 286.71875 600 l 6
 261.999023438 599.890625 262 598.125 262 570 c 6
 262 480 l 5
 382 480 l 5
 382 360 l 5
 262 360 l 5
 262 120 l 5
 322 120 l 5
 322 0 l 5
 22 0 l 5
 22 120 l 5
 82 120 l 5
 82 360 l 5
 22 360 l 5
 22 480 l 5
 82 480 l 5
 82 600 l 6
 82 690 112 720 202 720 c 6
EndSplineSet
Validated: 524321
LCarets2: 2 0 0 
Ligature2: "StdLig-1" f f l
EndChar
